<svg width="56" height="54" viewBox="0 0 56 54" fill="none" xmlns="http://www.w3.org/2000/svg">
<g filter="url(#filter0_d)">
<path d="M51 46.198C48.6 47.3993 46.0462 48 43.3385 48C40.9385 48 38.7538 47.6304 36.7846 46.8911C32.5385 45.3201 28.9231 42.2552 25.9385 37.6964C25.1692 36.5875 23.7385 34.462 21.6462 31.3201C19.5538 28.1782 18.2 26.176 17.5846 25.3135C16.5077 23.6194 15.6462 22.6953 15 22.5413V22.0792C15.0308 22.0792 15.0615 22.0792 15.0923 22.0792C15.1538 22.0792 15.2154 22.0792 15.2769 22.0792C15.3385 22.0792 15.4 22.0792 15.4615 22.0792C15.5231 22.0792 15.6 22.0792 15.6923 22.0792C15.7846 22.0792 15.8615 22.0792 15.9231 22.0792C17.4923 22.0792 18.9385 21.725 20.2615 21.0165C22.2615 19.9076 23.2615 17.8592 23.2615 14.8713C23.2615 12.6843 22.6462 11.0055 21.4154 9.83498C20.1846 8.63366 18.7077 8.033 16.9846 8.033H13.4769V34.9703C13.4769 35.7712 13.7692 36.4642 14.3538 37.0495C14.9385 37.604 15.6308 37.8812 16.4308 37.8812H17.0308V38.3432H3V37.8812H3.6C4.36923 37.8812 5.04615 37.604 5.63077 37.0495C6.21538 36.495 6.52308 35.8174 6.55385 35.0165V9.37294C6.52308 8.57206 6.21538 7.89439 5.63077 7.33994C5.07692 6.75468 4.4 6.46205 3.6 6.46205H3V6H18.8308C22.8 6 25.8769 6.90869 28.0615 8.72607C29.7846 10.143 30.6462 12.1452 30.6462 14.7327C30.6462 17.3201 29.8 19.4301 28.1077 21.0627C26.4462 22.6645 24.5385 23.4653 22.3846 23.4653C22.2 23.4653 22 23.4499 21.7846 23.4191C23.0462 24.0968 24.0923 24.8515 24.9231 25.6832C25.7846 26.5149 26.5231 27.3003 27.1385 28.0396C27.7846 28.7789 28.3231 29.4411 28.7538 30.0264C29.2154 30.5809 29.8154 31.3355 30.5538 32.2904C31.2923 33.2145 32.0615 34.1848 32.8615 35.2013C33.6615 36.2178 34.5385 37.2651 35.4923 38.3432C36.4769 39.3905 37.5538 40.3916 38.7231 41.3465C39.9231 42.3014 41.1385 43.0869 42.3692 43.703C44.9846 45.0275 47.8615 45.7052 51 45.736V46.198Z" fill="white"/>
</g>
<defs>
<filter id="filter0_d" x="2" y="5" width="54" height="48" filterUnits="userSpaceOnUse" color-interpolation-filters="sRGB">
<feFlood flood-opacity="0" result="BackgroundImageFix"/>
<feColorMatrix in="SourceAlpha" type="matrix" values="0 0 0 0 0 0 0 0 0 0 0 0 0 0 0 0 0 0 127 0"/>
<feOffset dx="2" dy="2"/>
<feGaussianBlur stdDeviation="1.5"/>
<feColorMatrix type="matrix" values="0 0 0 0 0 0 0 0 0 0 0 0 0 0 0 0 0 0 0.35 0"/>
<feBlend mode="normal" in2="BackgroundImageFix" result="effect1_dropShadow"/>
<feBlend mode="normal" in="SourceGraphic" in2="effect1_dropShadow" result="shape"/>
</filter>
</defs>
</svg>
