<svg width="56" height="54" viewBox="0 0 56 54" fill="none" xmlns="http://www.w3.org/2000/svg"><path d="M51 46.198A16.887 16.887 0 0 1 43.339 48c-2.4 0-4.585-.37-6.554-1.109-4.246-1.57-7.862-4.636-10.846-9.195-.77-1.108-2.2-3.234-4.293-6.376-2.092-3.142-3.446-5.144-4.061-6.006-1.077-1.695-1.939-2.619-2.585-2.773v-.462h.923c1.57 0 3.016-.354 4.339-1.063 2-1.108 3-3.157 3-6.145 0-2.187-.616-3.866-1.847-5.036-1.23-1.201-2.707-1.802-4.43-1.802h-3.508V34.97c0 .801.292 1.494.877 2.08a2.917 2.917 0 0 0 2.077.831h.6v.462H3v-.462h.6c.77 0 1.446-.277 2.03-.831a2.855 2.855 0 0 0 .924-2.033V9.373A2.855 2.855 0 0 0 5.63 7.34a2.689 2.689 0 0 0-2.03-.878H3V6h15.83c3.97 0 7.047.909 9.232 2.726 1.723 1.417 2.584 3.42 2.584 6.007 0 2.587-.846 4.697-2.538 6.33-1.662 1.602-3.57 2.402-5.723 2.402-.185 0-.385-.015-.6-.046 1.261.678 2.307 1.433 3.138 2.264.862.832 1.6 1.617 2.216 2.357a31.198 31.198 0 0 1 1.615 1.986c.461.555 1.061 1.31 1.8 2.264.738.925 1.508 1.895 2.308 2.911a71.385 71.385 0 0 0 2.63 3.142 33.563 33.563 0 0 0 3.231 3.003c1.2.955 2.416 1.74 3.646 2.357 2.616 1.325 5.492 2.002 8.631 2.033v.462z" fill="#fff" filter="url(#a)"/><defs><filter id="a" x="2" y="5" width="54" height="48" filterUnits="userSpaceOnUse" color-interpolation-filters="sRGB"><feFlood flood-opacity="0" result="BackgroundImageFix"/><feColorMatrix in="SourceAlpha" values="0 0 0 0 0 0 0 0 0 0 0 0 0 0 0 0 0 0 127 0"/><feOffset dx="2" dy="2"/><feGaussianBlur stdDeviation="1.5"/><feColorMatrix values="0 0 0 0 0 0 0 0 0 0 0 0 0 0 0 0 0 0 0.35 0"/><feBlend in2="BackgroundImageFix" result="effect1_dropShadow"/><feBlend in="SourceGraphic" in2="effect1_dropShadow" result="shape"/></filter></defs></svg>